<svg aria-hidden="true" style="position: absolute; width: 0; height: 0; overflow: hidden;" version="1.1" xmlns="http://www.w3.org/2000/svg" xmlns:xlink="http://www.w3.org/1999/xlink">
<defs>
<symbol id="Instagram" viewBox="0 0 32 32">
<path d="M23.311-1.5h-15.59c-2.411 0.003-4.723 0.962-6.428 2.666s-2.664 4.017-2.666 6.428v15.59c0.003 2.411 0.962 4.723 2.666 6.428s4.016 2.664 6.428 2.666h15.59c2.411-0.003 4.723-0.962 6.428-2.666s2.664-4.016 2.666-6.428v-15.59c-0.002-2.411-0.961-4.723-2.666-6.428s-4.017-2.664-6.428-2.666zM15.516 23.184c-1.542 0-3.049-0.457-4.331-1.314s-2.281-2.074-2.871-3.498c-0.59-1.424-0.744-2.992-0.444-4.504s1.043-2.901 2.133-3.991c1.090-1.090 2.479-1.832 3.991-2.133s3.079-0.146 4.504 0.444c1.424 0.59 2.642 1.589 3.498 2.871s1.314 2.789 1.314 4.331c-0.002 2.067-0.824 4.048-2.285 5.51s-3.443 2.283-5.509 2.285zM25.26 7.594c-0.385 0-0.762-0.114-1.083-0.328s-0.57-0.518-0.718-0.875-0.186-0.748-0.111-1.126c0.075-0.378 0.261-0.725 0.533-0.998s0.62-0.458 0.998-0.533c0.378-0.075 0.77-0.037 1.126 0.111s0.66 0.397 0.875 0.718c0.214 0.32 0.329 0.697 0.329 1.083 0 0.517-0.205 1.013-0.571 1.378s-0.861 0.571-1.378 0.571zM20.713 15.389c0 1.028-0.305 2.033-0.876 2.887s-1.383 1.521-2.332 1.914c-0.95 0.393-1.994 0.496-3.002 0.296s-1.934-0.695-2.661-1.422c-0.727-0.727-1.222-1.653-1.422-2.661s-0.098-2.053 0.296-3.002 1.059-1.761 1.914-2.332c0.855-0.571 1.859-0.876 2.887-0.876 1.378 0 2.7 0.547 3.675 1.522s1.522 2.296 1.522 3.675z"></path>
</symbol>
<symbol id="Yotube" viewBox="0 0 32 32">
<path d="M18.672 15.722l-3.743-1.747c-0.327-0.152-0.595 0.018-0.595 0.38v3.29c0 0.362 0.268 0.532 0.595 0.38l3.742-1.747c0.328-0.153 0.328-0.403 0.002-0.557zM16 0c-8.837 0-16 7.163-16 16s7.163 16 16 16c8.837 0 16-7.163 16-16s-7.163-16-16-16zM16 22.5c-8.19 0-8.333-0.738-8.333-6.5s0.143-6.5 8.333-6.5c8.19 0 8.333 0.738 8.333 6.5s-0.143 6.5-8.333 6.5z"></path>
</symbol>
<symbol id="Facbook" viewBox="0 0 32 32">
<path d="M32 16.040c0-8.854-7.168-16.040-16-16.040s-16 7.186-16 16.040c0 7.763 5.504 14.228 12.8 15.719v-10.907h-3.2v-4.812h3.2v-4.010c0-3.096 2.512-5.614 5.6-5.614h4v4.812h-3.2c-0.88 0-1.6 0.722-1.6 1.604v3.208h4.8v4.812h-4.8v11.148c8.080-0.802 14.4-7.635 14.4-15.96z"></path>
</symbol>
<symbol id="instagram2" viewBox="0 0 32 32">
<path fill="#fbfbfb" style="fill: var(--color1, #fbfbfb)" d="M23.385 0h-14.769c-2.284 0.002-4.474 0.911-6.089 2.526s-2.524 3.805-2.526 6.089v14.769c0.002 2.284 0.911 4.474 2.526 6.089s3.805 2.524 6.089 2.526h14.769c2.284-0.003 4.474-0.911 6.089-2.526s2.524-3.805 2.526-6.089v-14.769c-0.003-2.284-0.911-4.474-2.526-6.089s-3.805-2.524-6.089-2.526zM16 23.385c-1.461 0-2.888-0.433-4.103-1.244s-2.161-1.965-2.72-3.314c-0.559-1.349-0.705-2.834-0.42-4.267s0.988-2.748 2.021-3.781c1.033-1.033 2.349-1.736 3.781-2.021s2.917-0.139 4.267 0.42c1.349 0.559 2.503 1.505 3.314 2.72s1.244 2.642 1.244 4.103c-0.002 1.958-0.781 3.835-2.165 5.22s-3.262 2.163-5.22 2.165zM25.231 8.615c-0.365 0-0.722-0.108-1.026-0.311s-0.54-0.491-0.68-0.829c-0.14-0.337-0.176-0.709-0.105-1.067s0.247-0.687 0.505-0.945c0.258-0.258 0.587-0.434 0.945-0.505s0.729-0.035 1.067 0.105c0.337 0.14 0.626 0.376 0.829 0.68s0.311 0.661 0.311 1.026c0 0.49-0.195 0.959-0.541 1.305s-0.816 0.541-1.305 0.541zM20.923 16c0 0.974-0.289 1.926-0.83 2.735s-1.31 1.441-2.209 1.813c-0.9 0.373-1.889 0.47-2.844 0.28s-1.832-0.659-2.521-1.347c-0.688-0.689-1.157-1.566-1.347-2.521s-0.092-1.945 0.28-2.844 1.004-1.668 1.813-2.209c0.81-0.541 1.761-0.83 2.735-0.83 1.306 0 2.558 0.519 3.481 1.442s1.442 2.175 1.442 3.481z"></path>
</symbol>
<symbol id="yotube2" viewBox="0 0 32 32">
<path fill="#fbfbfb" style="fill: var(--color1, #fbfbfb)" d="M18.672 15.722l-3.743-1.747c-0.327-0.152-0.595 0.018-0.595 0.38v3.29c0 0.362 0.268 0.532 0.595 0.38l3.742-1.747c0.328-0.153 0.328-0.403 0.002-0.557zM16 0c-8.837 0-16 7.163-16 16s7.163 16 16 16c8.837 0 16-7.163 16-16s-7.163-16-16-16zM16 22.5c-8.19 0-8.333-0.738-8.333-6.5s0.143-6.5 8.333-6.5c8.19 0 8.333 0.738 8.333 6.5s-0.143 6.5-8.333 6.5z"></path>
</symbol>
<symbol id="Facbook2" viewBox="0 0 32 32">
<path fill="#fbfbfb" style="fill: var(--color1, #fbfbfb)" d="M32 16.040c0-8.854-7.168-16.040-16-16.040s-16 7.186-16 16.040c0 7.763 5.504 14.228 12.8 15.719v-10.907h-3.2v-4.812h3.2v-4.010c0-3.096 2.512-5.614 5.6-5.614h4v4.812h-3.2c-0.88 0-1.6 0.722-1.6 1.604v3.208h4.8v4.812h-4.8v11.148c8.080-0.802 14.4-7.635 14.4-15.96z"></path>
</symbol>
</defs>
</svg>
